<svg width="480" height="480" xmlns:xlink="http://www.w3.org/1999/xlink" xmlns="http://www.w3.org/2000/svg"><defs><linearGradient id="b"><stop offset="0" stop-color="#ef6c74"/><stop offset=".496" stop-color="#ed5f6a"/><stop offset="1" stop-color="#ef6c74"/></linearGradient><linearGradient id="a"><stop offset="0" stop-color="#ff5c66"/><stop offset=".25" stop-color="#ff5c66"/><stop offset=".5" stop-color="#ff4d5f"/><stop offset=".75" stop-color="#ff4d5f"/><stop offset="1" stop-color="#ff5c66"/></linearGradient><linearGradient xlink:href="#a" id="c" gradientUnits="userSpaceOnUse" spreadMethod="reflect" x1="449.188" y1="307.4" x2="455.106" y2="306.9"/><linearGradient xlink:href="#b" id="d" gradientUnits="userSpaceOnUse" spreadMethod="repeat" x1="436.459" y1="308.516" x2="455.106" y2="306.9" gradientTransform="matrix(1.45335 0 0 1.60162 -62.523 -373.355)"/></defs><g stroke="#000" stroke-linejoin="round"><path d="M240.058 27.646l13.824 203.69c164.183 24.101 261.245 2.17 335.018-30.034 10.033-87.275 3.269-250.086-7.312-195.586z" fill="url(#d)" stroke-width="10.68" transform="translate(-169.778 202.662)"/><path d="M422.727 138.298c22.355-38.075-24.287-63.825-96.937-71.929C-73.476 35.192-12.174 336.711 124.622 252.652c28.131 16.164 66.414 16.904 114.748 2.37 23.77 9.25 49.942 10.617 78.306 4.79 33.903.014 66.34-3.993 91.475-28.034 80.484-9.681 59.185-72.074 13.576-93.48z" fill="#9d5c2f" stroke-width="10.01" stroke-linecap="round"/></g><path d="M221.578 366.982l73.538-5.348c-.251 16.136-10.705 32.648-34.36 34.718-16.033-.42-29.464-2.673-39.178-29.37z" fill="#fff" stroke="#000" stroke-width="10.171" stroke-linejoin="round"/><g transform="matrix(1.0649 0 0 1.0649 -17.407 -31.178)" stroke="#000" stroke-linecap="round" stroke-linejoin="round"><ellipse cx="175.897" cy="326.165" rx="9.311" ry="8.619" stroke-width="7.932"/><ellipse cx="331.279" cy="323.03" rx="8.039" ry="7.594" stroke-width="9.688"/></g></svg>