<svg width="480" height="480" xmlns:xlink="http://www.w3.org/1999/xlink" xmlns="http://www.w3.org/2000/svg"><defs><linearGradient id="b"><stop style="stop-color:#e2797f;stop-opacity:1" offset="0"/><stop offset=".25" style="stop-color:#ef6c75;stop-opacity:1"/><stop offset=".5" style="stop-color:#e06c75;stop-opacity:1"/><stop style="stop-color:#e06c73;stop-opacity:1" offset=".75"/><stop style="stop-color:#f7646e;stop-opacity:1" offset="1"/></linearGradient><linearGradient id="a"><stop style="stop-color:#ff5c66;stop-opacity:1" offset="0"/><stop offset=".25" style="stop-color:#ff5c66;stop-opacity:1"/><stop offset=".5" style="stop-color:#ff4d5f;stop-opacity:1"/><stop style="stop-color:#ff4d5f;stop-opacity:1" offset=".75"/><stop style="stop-color:#ff5c66;stop-opacity:1" offset="1"/></linearGradient><linearGradient xlink:href="#a" id="c" gradientUnits="userSpaceOnUse" spreadMethod="reflect" x1="449.188" y1="307.4" x2="455.106" y2="306.9"/><linearGradient xlink:href="#b" id="d" gradientUnits="userSpaceOnUse" spreadMethod="repeat" x1="436.459" y1="308.516" x2="455.106" y2="306.9" gradientTransform="matrix(1.36477 0 0 1.504 -32.019 -333.674)"/></defs><g style="display:inline"><path style="fill:url(#d);fill-opacity:1;fill-rule:nonzero;stroke:#000;stroke-width:10.0289;stroke-linecap:butt;stroke-linejoin:round;stroke-miterlimit:4;stroke-dasharray:none;stroke-opacity:1" d="m252.12 42.887 12.982 191.276c154.176 22.632 245.323 2.038 314.6-28.203 9.42-81.957 3.07-234.844-6.867-183.666z" transform="translate(-169.778 202.662)"/><path style="fill:#946132;fill-opacity:1;stroke:#000;stroke-width:10.7006;stroke-linecap:round;stroke-linejoin:round;stroke-miterlimit:4;stroke-dasharray:none;stroke-dashoffset:0;stroke-opacity:1" d="M597.707-71.946c22.78-42.7-24.75-71.578-98.785-80.667C79.534-175.669 154.52 150.57 293.922 56.3c28.667 18.127 67.679 18.957 116.934 2.658 24.222 10.373 50.893 11.906 79.798 5.372 34.548.015 67.604-4.478 93.218-31.44 82.017-10.857 60.313-80.83 13.835-104.835z" transform="translate(-169.778 202.662)"/></g><g style="display:inline"><path style="display:inline;fill:#fff;fill-opacity:1;stroke:#000;stroke-width:9.55125;stroke-linecap:butt;stroke-linejoin:round;stroke-miterlimit:4;stroke-dasharray:none;stroke-opacity:1" d="m391.962 171.232 69.056-5.023c-.236 15.153-10.053 30.658-32.265 32.602-15.057-.395-27.669-2.51-36.791-27.58z" transform="translate(-167.543 202.662)"/></g><g style="display:inline"><ellipse style="display:inline;fill:#000;fill-opacity:1;fill-rule:nonzero;stroke:#000;stroke-width:7.93204;stroke-linecap:round;stroke-linejoin:round;stroke-miterlimit:4;stroke-dasharray:none;stroke-dashoffset:0;stroke-opacity:1" cx="175.897" cy="326.165" rx="9.311" ry="8.619"/><ellipse style="display:inline;fill:#000;fill-opacity:1;fill-rule:nonzero;stroke:#000;stroke-width:9.68795;stroke-linecap:round;stroke-linejoin:round;stroke-miterlimit:4;stroke-dasharray:none;stroke-dashoffset:0;stroke-opacity:1" cx="331.279" cy="323.03" rx="8.039" ry="7.594"/></g></svg>